<svg version="1.1" xmlns="http://www.w3.org/2000/svg" viewBox="0 0 377.9049334235832 288.5043388038114" width="377.9049334235832" height="288.5043388038114">
  <!-- svg-source:excalidraw -->
  <g stroke-linecap="round" transform="translate(10 34.80708670682179) rotate(0 88 42.999999999999986)"><path d="M-0.28 -1.65 C46.98 0.76, 94.22 0.04, 177.13 0.76 M0.45 0.08 C62.09 0.94, 122.27 1.36, 176.67 -0.4 M176.44 1.25 C175.19 22.62, 174.84 48.9, 174.26 85.85 M175.44 0.15 C175.17 20.91, 175.64 42.76, 176.97 85.73 M176.85 86.12 C137.38 87.2, 96.1 85.16, 1.28 84.28 M175.55 86.34 C133.76 85.19, 94.11 84.99, -0.3 85.37 M-0.65 84.68 C1.87 61.47, -1.31 41.69, -0.49 -1.89 M-0.5 86.68 C0.76 62.76, 0.4 37.6, -0.6 0.84" stroke="#333" stroke-width="1" fill="none"></path></g><g transform="translate(15 39.80708670682179) rotate(0 29.296875 12)"><text x="0" y="0" font-family="Cascadia, Segoe UI Emoji" font-size="20px" fill="#364fc7" text-anchor="start" style="white-space: pre;" direction="ltr" dominant-baseline="text-before-edge">F1 bD</text></g><g stroke-linecap="round" transform="translate(224.9049334235831 34.277769312495764) rotate(0 71.50000000000006 42.500000000000014)"><path d="M-0.28 -1.65 C38.31 0.73, 76.88 0.01, 144.13 0.76 M0.45 0.08 C50.57 0.72, 99.23 1.14, 143.67 -0.4 M143.44 1.25 C142.19 22.34, 141.84 48.34, 141.26 84.85 M142.44 0.15 C142.18 20.66, 142.64 42.25, 143.97 84.73 M143.85 85.12 C111.69 86.03, 77.72 83.98, 1.28 83.28 M142.55 85.34 C108.53 84.2, 76.65 84, -0.3 84.37 M-0.65 83.68 C1.87 60.73, -1.31 41.21, -0.49 -1.89 M-0.5 85.68 C0.76 62.04, 0.39 37.16, -0.6 0.84" stroke="#333" stroke-width="1" fill="none"></path></g><g transform="translate(229.9049334235831 39.277769312495764) rotate(0 46.87500000000006 24.000000000000014)"><text x="0" y="0" font-family="Cascadia, Segoe UI Emoji" font-size="20px" fill="#c92a2a" text-anchor="start" style="white-space: pre;" direction="ltr" dominant-baseline="text-before-edge">F1|hello</text><text x="0" y="24" font-family="Cascadia, Segoe UI Emoji" font-size="20px" fill="#c92a2a" text-anchor="start" style="white-space: pre;" direction="ltr" dominant-baseline="text-before-edge">bD|world</text></g><g stroke-linecap="round" transform="translate(104.52108005388072 165.80911064296217) rotate(0 102.67593734477595 56.34761408042462)"><path d="M0.76 0.21 C74.78 2.28, 150.1 0.61, 205.44 1.48 M0.25 -0.53 C78.37 0.69, 155.38 -0.06, 205.21 0.61 M207.16 1.79 C204.55 39.16, 204.24 77.17, 204.76 111.58 M206.16 -0.79 C205.11 43.45, 204.68 86.81, 205.76 112.89 M205.32 114.25 C159.46 113.93, 113.62 113.09, 0.85 112.37 M205.35 113.15 C163.44 112.42, 120.06 112.42, -0.78 113.38 M-1.74 114.07 C-0.21 78.61, 0.9 46.29, -1.15 -1.75 M0.3 112.23 C1.67 84.62, 1.26 57.12, -0.18 0.38" stroke="#333" stroke-width="1" fill="none"></path></g><g transform="translate(142.74389239865684 210.15672472338676) rotate(0 64.453125 12)"><text x="64.453125" y="0" font-family="Cascadia, Segoe UI Emoji" font-size="20px" fill="#333" text-anchor="middle" style="white-space: pre;" direction="ltr" dominant-baseline="text-before-edge">hello world</text></g><g transform="translate(10 10) rotate(0 53.8125 9.200000000000003)"><text x="0" y="0" font-family="Helvetica, Segoe UI Emoji" font-size="16px" fill="#333" text-anchor="start" style="white-space: pre;" direction="ltr" dominant-baseline="text-before-edge">content section</text></g><g transform="translate(224.9049334235831 12.448480939890942) rotate(0 43.14062500000006 9.200000000000003)"><text x="0" y="0" font-family="Helvetica, Segoe UI Emoji" font-size="16px" fill="#333" text-anchor="start" style="white-space: pre;" direction="ltr" dominant-baseline="text-before-edge">data section</text></g><g transform="translate(104.52108005388072 143.34989786745663) rotate(0 32.01953125 9.199999999999989)"><text x="0" y="0" font-family="Helvetica, Segoe UI Emoji" font-size="16px" fill="#333" text-anchor="start" style="white-space: pre;" direction="ltr" dominant-baseline="text-before-edge">plain text</text></g><g stroke-linecap="round"><g transform="translate(75.03543472732088 55.79134462012115) rotate(0 76.6537538295949 9.896293132964672)"><path d="M-1.14 1.18 C24.59 4, 128.64 15.05, 154.44 17.64 M0.47 0.75 C26.14 3.69, 128.65 16.26, 154.1 19.04" stroke="#333" stroke-width="1" fill="none"></path></g><g transform="translate(75.03543472732088 55.79134462012115) rotate(0 76.6537538295949 9.896293132964672)"><path d="M126.87 27.87 C133.35 24.79, 140.74 22.68, 152.26 18.71 M125.07 25.43 C131.72 24.28, 139.05 21.7, 154.27 18.89" stroke="#333" stroke-width="1" fill="none"></path></g><g transform="translate(75.03543472732088 55.79134462012115) rotate(0 76.6537538295949 9.896293132964672)"><path d="M129.25 7.49 C135.12 10.61, 141.79 14.72, 152.26 18.71 M127.45 5.05 C133.6 9.09, 140.33 11.7, 154.27 18.89" stroke="#333" stroke-width="1" fill="none"></path></g></g><mask></mask><g stroke-linecap="round"><g transform="translate(289.42051495954263 85.08235619113404) rotate(0 -24.92741351401844 63.98977074621348)"><path d="M0.22 0.31 C-8.06 21.43, -41.73 106.34, -50.08 127.63 M-1.12 -0.58 C-9 20.57, -39.52 106.96, -47.83 128.55" stroke="#333" stroke-width="1" fill="none"></path></g><g transform="translate(289.42051495954263 85.08235619113404) rotate(0 -24.92741351401844 63.98977074621348)"><path d="M-47.24 97.08 C-49.49 105.5, -48.8 113.17, -48.32 128.7 M-48.18 98.68 C-48.39 106.8, -48.48 115.77, -47.74 129.25" stroke="#333" stroke-width="1" fill="none"></path></g><g transform="translate(289.42051495954263 85.08235619113404) rotate(0 -24.92741351401844 63.98977074621348)"><path d="M-27.97 104.15 C-35.44 110.71, -39.91 116.49, -48.32 128.7 M-28.91 105.75 C-34.53 111.8, -39.95 118.81, -47.74 129.25" stroke="#333" stroke-width="1" fill="none"></path></g></g><mask></mask></svg>